<?xml version="1.0" standalone="no"?>
<!DOCTYPE svg PUBLIC "-//W3C//DTD SVG 20010904//EN"
 "http://www.w3.org/TR/2001/REC-SVG-20010904/DTD/svg10.dtd">
<svg version="1.0" xmlns="http://www.w3.org/2000/svg"
 width="512.000000pt" height="512.000000pt" viewBox="0 0 512.000000 512.000000"
 preserveAspectRatio="xMidYMid meet">
<metadata>
Created by potrace 1.14, written by Peter Selinger 2001-2017
</metadata>
<g transform="translate(0.000000,512.000000) scale(0.100000,-0.100000)"
fill="#000000" stroke="none">
<path d="M460 5113 c-110 -19 -210 -72 -296 -157 -77 -77 -127 -165 -151 -266
-10 -44 -13 -460 -13 -2125 0 -1805 2 -2078 15 -2135 43 -184 169 -327 353
-399 l67 -26 2101 -3 2101 -2 81 23 c44 13 106 39 137 58 76 45 166 143 204
221 65 133 61 -13 61 2264 0 1818 -2 2077 -15 2130 -47 183 -172 323 -353 393
l-67 26 -2100 1 c-1155 1 -2111 0 -2125 -3z m2535 -313 c105 -51 174 -156 179
-273 9 -208 -189 -372 -387 -321 -139 36 -234 150 -242 288 -7 146 82 277 219
322 61 20 172 12 231 -16z m830 -3 c199 -102 240 -352 83 -509 -139 -139 -377
-113 -486 52 -113 172 -34 402 161 472 73 26 175 20 242 -15z m827 0 c223
-109 238 -419 28 -552 -157 -99 -374 -36 -452 133 -25 55 -29 75 -30 142 0 99
56 202 139 257 89 59 218 67 315 20z m303 -857 c18 -15 20 -51 3 -68 -9 -9
-556 -12 -2399 -12 -2069 0 -2388 2 -2399 14 -17 21 -9 59 16 71 33 16 4759
12 4779 -5z m-2261 -484 c263 -61 455 -296 461 -566 3 -116 -34 -243 -101
-344 l-32 -48 68 -69 c62 -61 152 -186 193 -264 261 -505 175 -1199 -195
-1566 -69 -68 -71 -69 -124 -69 l-53 0 50 66 c122 162 188 372 193 614 8 390
-155 728 -411 856 -76 38 -81 39 -184 39 -103 0 -108 -1 -182 -39 -212 -107
-364 -363 -405 -677 -9 -72 -8 -262 1 -319 36 -210 89 -346 186 -474 l50 -66
-54 0 c-53 0 -54 0 -125 72 -316 318 -429 870 -280 1353 30 94 88 218 143 303
55 85 76 111 149 183 l57 56 -33 49 c-171 258 -120 597 119 791 140 114 334
159 509 119z m-1764 -1061 c291 -291 370 -375 370 -394 0 -20 -79 -105 -373
-398 -389 -389 -396 -395 -439 -356 -41 37 -32 49 327 409 l346 347 -343 342
c-188 189 -344 348 -346 354 -14 42 31 87 71 72 10 -4 184 -173 387 -376z
m3828 -1781 c14 -10 22 -25 22 -44 0 -59 6 -58 -564 -58 l-519 0 -23 23 c-21
21 -22 28 -13 52 5 15 16 31 22 35 7 4 246 8 532 8 455 0 523 -2 543 -16z"/>
<path d="M2482 2647 c-80 -9 -193 -45 -199 -64 -5 -14 259 -283 277 -283 14 0
280 266 280 280 0 14 -47 33 -125 53 -79 20 -144 24 -233 14z"/>
</g>
</svg>
